/* XPM */
static char *_0003a47a2814133b8c2236a7e3500cc8OHrjNtlWUwC7nf6[] = {
/* columns rows colors chars-per-pixel */
"64 64 250 2 ",
"   c #2B1D1C",
".  c #261A18",
"X  c #210D0C",
"o  c #2D2322",
"O  c #332423",
"+  c #382927",
"@  c #3C3330",
"#  c #491C18",
"$  c #541911",
"%  c #4D221B",
"&  c #55231D",
"*  c #5C241C",
"=  c #61261D",
"-  c #462B2A",
";  c #5B2621",
":  c #592926",
">  c #46362C",
",  c #4A3B34",
"<  c #563734",
"1  c #57322E",
"2  c #642A23",
"3  c #6B2D25",
"4  c #6B2F2C",
"5  c #642B2A",
"6  c #6C302E",
"7  c #67312A",
"8  c #74332D",
"9  c #6D3331",
"0  c #693935",
"q  c #753533",
"w  c #7D3A39",
"e  c #7A3735",
"r  c #491F23",
"t  c #574439",
"y  c #4D4037",
"u  c #7A4738",
"i  c #7B3B41",
"p  c #5C4D48",
"a  c #684944",
"s  c #7A4A48",
"d  c #685248",
"f  c #6B5A5A",
"g  c #785751",
"h  c #756657",
"j  c #6F6467",
"k  c #833C3C",
"l  c #893E3E",
"z  c #813937",
"x  c #8D3B31",
"c  c #BB3521",
"v  c #C33C1E",
"b  c #8B423E",
"n  c #87443D",
"m  c #95543D",
"M  c #B4482E",
"N  c #B96A37",
"B  c #BA491F",
"V  c #D74B19",
"C  c #D75926",
"Z  c #D94C3F",
"A  c #D64B3D",
"S  c #CB4E2E",
"D  c #D36B30",
"F  c #E2672B",
"G  c #E87A2F",
"H  c #883F43",
"J  c #8C4243",
"K  c #874948",
"L  c #964A48",
"P  c #99544B",
"I  c #9D4E54",
"U  c #895854",
"Y  c #995956",
"T  c #89514C",
"R  c #A54C45",
"E  c #B84E44",
"W  c #A9544B",
"Q  c #B9574A",
"!  c #A85855",
"~  c #B35C53",
"^  c #9D625B",
"/  c #8A6C56",
"(  c #A9655E",
")  c #B36E52",
"_  c #A65D61",
"`  c #856967",
"'  c #976562",
"]  c #8A746C",
"[  c #887877",
"{  c #957C77",
"}  c #99746E",
"|  c #A86763",
" . c #B66A67",
".. c #A8766A",
"X. c #B8756C",
"o. c #A77B75",
"O. c #BA7774",
"+. c #C84E42",
"@. c #D94E41",
"#. c #D54D41",
"$. c #C7574B",
"%. c #DB5345",
"&. c #DA564A",
"*. c #DB5A4D",
"=. c #D55447",
"-. c #DC5E51",
";. c #CE5C51",
":. c #E25B4D",
">. c #E05244",
",. c #E15F51",
"<. c #DD6253",
"1. c #DA6858",
"2. c #CD6555",
"3. c #E16555",
"4. c #E26758",
"5. c #E36C5B",
"6. c #E76957",
"7. c #E4715E",
"8. c #E8725E",
"9. c #E37B44",
"0. c #DF6E62",
"q. c #DF7367",
"w. c #C87B78",
"e. c #C5756D",
"r. c #E57563",
"t. c #E97A66",
"y. c #E97C6A",
"u. c #E67867",
"i. c #F27765",
"p. c #B6903D",
"a. c #EA8932",
"s. c #F28A35",
"d. c #EC9937",
"f. c #F49B38",
"g. c #E98C2D",
"h. c #EDA836",
"j. c #F3A73A",
"k. c #F6BA3B",
"l. c #EFB436",
"z. c #F9C739",
"x. c #B38E55",
"c. c #97837C",
"v. c #A8827B",
"b. c #B8877C",
"n. c #BA966D",
"m. c #99844D",
"M. c #CA9350",
"N. c #EB924E",
"B. c #D5AF5D",
"V. c #F3B649",
"C. c #C9837A",
"Z. c #D3857E",
"A. c #CA956D",
"S. c #E98674",
"D. c #CDAB69",
"F. c #ECB76D",
"G. c #FBC945",
"H. c #FAD447",
"J. c #FCDB55",
"K. c #FFC952",
"L. c #E3C565",
"P. c #857C82",
"I. c #7F878A",
"U. c #8A8688",
"Y. c #948988",
"T. c #938F92",
"R. c #9A9A9D",
"E. c #969698",
"W. c #8F9493",
"Q. c #A78A85",
"!. c #B48B83",
"~. c #BB978A",
"^. c #A69995",
"/. c #B89A93",
"(. c #AA928A",
"). c #B6A797",
"_. c #9B9DA2",
"`. c #A8AAA8",
"'. c #BAAAA6",
"]. c #B6B4AD",
"[. c #CB8984",
"{. c #D58B86",
"}. c #C8988C",
"|. c #D6938D",
" X c #DB9B94",
".X c #D89B94",
"XX c #C69C93",
"oX c #E48D84",
"OX c #E9958A",
"+X c #EA9D95",
"@X c #F09E92",
"#X c #DDA39A",
"$X c #D6A69C",
"%X c #C9A993",
"&X c #E1A69D",
"*X c #EBA69D",
"=X c #EDA491",
"-X c #C9ACA3",
";X c #D9ADA2",
":X c #C8B7A9",
">X c #D8B4AA",
",X c #C7BAB4",
"<X c #DBBDB4",
"1X c #E2ACA2",
"2X c #ECABA4",
"3X c #E4B2A6",
"4X c #E5B5AB",
"5X c #EEB5AE",
"6X c #E6B9AD",
"7X c #E8B9AD",
"8X c #E7BCB1",
"9X c #EABDB2",
"0X c #EEB7B2",
"qX c #F2BDB3",
"wX c #F1AFA8",
"eX c #C9C1BC",
"rX c #D8C6B6",
"tX c #ECC2B6",
"yX c #ECC5BB",
"uX c #E6C6BB",
"iX c #F3C5B9",
"pX c #EBD2BE",
"aX c #EDD29D",
"sX c #B7C1C2",
"dX c #C9C8C6",
"fX c #D7D2CB",
"gX c #D9D7D6",
"hX c #D3CCCB",
"jX c #EBCCC2",
"kX c #F4CBC4",
"lX c #F7D6C9",
"zX c #F8DBD4",
"xX c #E9D9CD",
"cX c #EAE2CA",
"vX c #F2E3CC",
"bX c #FAE6D9",
"nX c #F3EBDC",
"mX c #DBE2E3",
"MX c #E7E7E8",
"NX c #F9E5E2",
"BX c #FCEDEC",
"VX c #FFEAE7",
"CX c #FAF6E8",
"ZX c #F2F3F4",
"AX c white",
"SX c #FEFEFE",
"DX c #FEFDFD",
"FX c #FFFFFF",
"GX c #F9F7F7",
"HX c #EDF0F3",
/* pixels */
"AXAXAXAXAXAXAXAXAXAXAXAXAXAXAXAXAXAXAXAXAXAXAXAXDXAXAXAXAXAXAXAXDXAXAXAXAXAXAXAXAXAXAXAXAXAXAXAXAXAXAXAXAXDXDXAXAXAXAXAXAXAXAXAX",
"AXAXAXAXAXAXAXAXAXAXAXAXAXAXAXAXAXAXAXAXAXAXAXAXAXAXAXAXAXDXAXAXAXDXAXAXAXAXAXAXAXAXAXAXAXAXAXAXAXAXAXAXAXAXAXAXAXAXAXAXAXAXAXAX",
"AXAXAXAXAXAXAXAXAXAXAXAXAXAXAXAXAXAXAXAXAXAXAXAXDXAXAXAXAXDXDXDXDXDXDXDXDXAXAXAXDXAXAXDXAXDXAXAXAXAXAXAXAXAXAXAXAXAXAXAXAXAXAXAX",
"AXAXAXAXAXAXAXAXAXAXAXAXAXAXAXAXAXAXAXAXAXDXAXDXDXDXAXAXAXAXAXAXAXAXDXDXAXDXDXDXAXDXAXAXAXAXAXAXAXAXAXAXAXAXAXDXAXAXAXAXAXAXAXAX",
"AXAXAXAXAXAXAXAXAXAXAXAXAXAXAXAXAXAXAXAXDXDXDXDXAXAXDXNXkX5X*X+X+X2X0XkXNXGXAXAXDXDXDXAXAXAXAXAXAXAXAXAXAXAXAXAXAXAXAXAXAXAXAXAX",
"AXAXAXAXAXAXAXAXAXAXAXAXAXAXAXAXAXAXAXDXAXDXDXNX0XoXr.*.#.A Z @.Z Z #.@.&.0.oX5XzXDXAXAXGXDXDXAXAXAXAXAXAXAXAXAXAXAXAXAXAXAXAXAX",
"AXAXAXAXAXAXAXAXAXAXAXAXAXAXAXAXAXDXDXDXBXwXy.*.%.%.&.*.*.*.-.*.*.*.*.*.&.&.@.#.=.q.wXVXAXAXAXDXGXAXAXAXAXAXAXAXAXAXAXAXAXAXAXAX",
"AXAXAXAXAXAXAXAXAXAXAXAXAXAXAXAXAXAXBX*X1.&.-.-.-.-.*.*.*.*.*.&.&.*.&.*.&.*.*.*.*.#.S $.|.MXGXAXAXAXDXDXAXAXAXAXAXAXAXAXAXAXAXAX",
"AXAXAXAXAXAXAXAXAXAXAXAXAXAXAXDXDXiX5.%.1.1.-.,.<.-.*.*.-.*.*.*.*.*.*.&.&.&.*.*.R u d t 1 y p p Y.gXAXDXAXAXAXAXAXAXAXAXAXAXAXAX",
"AXAXAXAXAXAXAXAXAXAXAXAXAXDXAXBXOX*.3.5.3.3.3.3.-.3.3.3.,.*.*.%.%.&.&.*.&.:.%.8 t d y @ @ + O + .   E.DXDXAXDXDXAXAXAXAXAXAXAXAX",
"AXAXAXAXAXAXAXAXAXAXAXAXDXAXzXr.3.5.5.1.4.1.3.1.3.*.%.&.-.1.0.q.q.5.<.&.@.>.~ ^.~.t ] b.}.~.h o + O X Y.DXDXDXDXAXAXAXAXAXAXAXAX",
"AXAXAXAXAXAXAXAXAXAXAXAXAXqX4.5.7.5.5.5.6.5.3.:.-.y.*XkXNXBXGXAXDXDXBXNXkX{.-XbXtX;XiXiXtXtXwXs X - + . sXDXDXDXAXAXAXAXAXAXAXAX",
"AXAXAXAXAXAXAXAXAXAXDXAX0X6.r.r.7.7.7.7.5.,.5.OXzXDXAXAXAXAXAXAXDXAXAXDXAXhXuXtX6X6X3X4X7X4X&X{.1 O +   f DXDXDXAXAXAXAXAXAXAXAX",
"AXAXAXAXAXAXAXAXAXDXAXiX6.t.r.r.7.7.7.5.<.+XNXAXAXAXDXDXAXDXDXAXAXDXDXAXGX,XpXtX6X6X7X7X7X7X#X|.s O + % , HXDXDXAXAXAXAXAXAXAXAX",
"AXAXAXAXAXAXAXAXDXAXlX5.t.r.r.r.r.t.4.y.lXAXDXAXDXAXDXAXAXAXAXAXAXAXDXAXHXrXjX6X6X7X7XqX7X6X&X{.< + - + - 8XDXDXAXAXAXAXAXAXAXAX",
"AXAXAXAXAXAXAXAXAXBXS.t.t.t.t.t.t.5.OXGXAXAXAXAXAXAXAXAXAXAXAXAXAXAXDXAXgX-XyX9X4XtX3X%X;X7X1XC.- - - > - ;.BXAXAXAXAXAXAXAXAXAX",
"AXAXAXAXAXAXDXAXDX@X8.S.t.t.t.y.6.*XDXAXAXAXAXAXAXAXAXAXAXAXAXAXAXAXGXAX].] h ;X5X` a d T P.+Xw.1 - - - 1 #.oXDXDXDXAXAXAXAXDXAX",
"AXAXAXAXAXAXDXAXiX8.y.y.t.t.y.8.*XAXDXDXAXAXAXAXAXAXAXAXAXAXAXAXAXAXDXAXeX(.c.-X9X!.h ` _  .Z.w.< + @ i 9 :.#.wXDXDXAXAXDXAXAXAX",
"AXAXAXAXAXAXAXBXS.t.y.y.y.y.8.@XDXDXAXAXAXAXAXAXAXAXAXAXAXAXAXAXAXAXDXAXdX[ y ] iXXXP., 0 {.w.w.< - ` s H :.&.-.BXDXAXAXAXAXAXAX",
"AXAXAXAXAXAXAX2X5.y.t.t.y.t.S.GXAXDXAXAXAXAXAXAXAXAXAXAXAXAXAXAXAXDXAXAXfXuXXX$X9X3X>X~.;X.Xw.O.  U o.K w *.*.#.+XDXDXAXAXAXAXAX",
"AXAXAXAXAXAXVXt.r.t.t.t.y.8.lXAXDXAXAXDXAXAXAXAXAXAXAXAXAXAXAXAXAXAXAXDXeXkXtX>XtXXX5XiX6X.XZ...  T K s L :.&.*.-.NXAXAXAXAXAXAX",
"AXAXAXAXDXAX5X4.t.r.r.y.8.*XAXDXAXAXAXAXAXAXAXDXAXAXAXAXAXAXAXAXAXAXDXDXdXjX$X-X1XY O.tX4X|.Z.i   ' i Y E :.*.*.#.2XAXDXAXAXAXAX",
"AXAXDXAXAXAXS.7.r.r.r.r.t.bXAXDXAXAXAXAXAXAXAXAXAXAXAXAXAXAXAXAXAXAXDXZX^.uX-X%Xb.| }.3X.X{.| + . U  .I &.*.*.*.&.q.DXAXAXAXAXAX",
"AXAXDXAXAXbX5.r.r.r.r.5.=XAXDXAXAXAXAXAXAXAXAXAXAXAXAXAXAXAXAXAXAXDXDXgXd uX~..X}.[.XXg O.w.@ + . r eX{.@.-.*.&.*.&.zXAXDXAXAXAX",
"AXAXAXGXAXqX3.7.7.7.r.7.bXDXDXAXAXAXAXAXAXAXAXAXAXAXAXAXDXAXAXAXAXDXAXfX> ).6Xd ^.'.] _ oXI o +   r gXzX@.*.*.*.*.#.5XAXDXDXAXDX",
"AXAXAXAXDX+X,.7.7.7.8.q.GXDXDXAXAXAXAXAXAXAXAXAXAXAXAXAXDXAXAXAXDXDXDXeX@ p uXXX/.XX+X X' +     . : -XDX0.&.:.*.*.@.oXDXDXAXAXAX",
"AXAXAXAXDXy.3.8.6.i.2.-XdXGXAXAXAXAXAXAXAXAXAXAXAXAXAXAXAXAXAXAXDXDXDXmXy , h $X$X}.Q.p o o     O I ` mX2X@.-.*.*.&.0.GXAXAXAXAX",
"AXAXAXAXbX6.6.2.e.~ ).CXxXgXAXDXAXAXAXAXAXAXAXAXAXAXAXAXAXAXAXDXDXDXDXZXt t , o @ + o o o o O   H e.P 1 $X:.*.-.*.*.*.NXAXDXAXAX",
"AXAXAXAXyX$.Q ).nXrXCXbXcXhXDXDXAXAXAXAXAXAXAXAXAXAXAXAXAXAXDXDXAXDXDXDX`.> y + o + + o o   . q _ w.w.5 q =.,.*.-.-.@.kXAXDXDXAX",
"AXAXGXMX'.rXrXvXnXCXvXcXvXeXMXDXAXAXAXAXAXAXAXAXAXAXAXAXAXAXDXDXAXAXGXmX^.t t t @ + + o .   i I _ Z._ i 8 z 3.-.-.,.@.5XAXDXAXAX",
"AXDXAXeXvXbXbXpXpXpXpXuXvXpXeXDXAXAXAXAXAXAXAXAXAXAXAXAXDXAXAXDXGXhX!.Y P U < > , o . o : i I _  .I i H q % $.6.-.-.%.2XDXDXAXAX",
"DXAXDX:XcXvX:Xx.p.B.n.x.A.~.(.GXAXAXAXAXAXAXAXAXAXAXAXAXGXAXDXhX~.| W ! L 0 7 % s g < H H I  .| | L H H 2 # 2 $.6.-.%.+XAXDXAXAX",
"DXDXDXeXpXrXx.l.z.z.l.g.S.) HXAXAXAXAXAXAXAXAXAXAXAXAXDXAXMX!.C.( L ! J 9 s f ' $X9X{. .Y w.{.Y Y L k q & = = 2 E 6.>.*XDXDXDXAX",
"DXDXZX:XiXn.H.G.J.J.k.N.a.A.HXxXfX,XMXAXDXDXAXAXAXAXGXAXfXo.X.Y L L k k K h P.{ qXqX&XO.Z.w.| g 1 J z & 2 4 2 2 * R :.2XAXDXAXAX",
"DXAXHX%Xv.x.H.G.J.J.z.V.N.x.R.XX>X9X,XfXDXDXAXAXAXAXDXfX..X.' L L H k 4 g Y.T.U.P./.{ v.o.` ` Y ; 9 5 q z z 4 2 & % +.qXDXDXAXAX",
"DXAXMXv.p.z.H.G.J.H.l.V.N.] T.Q.v.!.qXrX,XHXAXDXAXAXHXb.C.U P I J w : f T.T.T.E.W.W.W.W.U.] | : & 0 L k q 9 4 4 3 # x zXAXDXAXAX",
"DXDXDX..d.K.G.G.H.z.k.V.s.(.0XyX9X>X4XiXyXeXAXAXGXDX,Xe.' T W k k 5 f U.T.T.T.E.R.R.R.W.'  .9 0 ( Y e q k w e e 3 * m VXAXAXDXAX",
"AXDXAXn.f.V.G.z.H.z.j.s.M.T.!..X4X9X7X8XkX,XGXAXAXDX!.C.T L L e : j U.U.T.T.E.R.R.R.R.[  .u K ( J q e b z w q 2 * * ~ AXDXAXAXAX",
"DXDXGX) f.k.G.k.G.z.h.s.D /.5X$X4X4X4X7XiXrXMXAXAXfXX.b.T L u < [ P.P.T.E.E.R._.E._.U.( K Y ( e 9 w b k e 8 2 = 3 $ o.AXDXAXAXAX",
"DXDXMX2.j.j.k.l.k.z.d.s.x.P.;X0X4X9X7X4XtXyX,XAXAX'.C.X.m b u h Y.g @ ^.R.E._.E.R.E.` ( X.( K J J k w q 8 8 ; 2 4 $ Y.AXGXAXAXAX",
"DXDXfXD d.d.k.h.h.l.g.G m [.+X;X4X5X4X4X9XyX<XgXAX!.Z.( P w / L.B.m.j `.R.R.R._.R.f ' C.( J H J l k e e 8 2 3 2 2 $ { AXDXAXAXAX",
"DXDX,XC a.j.k.d.l.j.G a.m e.w.{.#X3X4X4X7X9XtX>X].X.C.^ L w M.L.B./ j `.R.R._.R.] T w.T w l H z z l l z 3 2 2 2 2 $ ^.AXGXAXAXAX",
"DXDX/.V G j.j.d.h.f.F D n O. . .Z. X+X1X3X4X8XqX>X~.o.U z u x.x.N.g W.].R._.W.}  .^ P n l H b z z H k z q 2 * * 3 & gXAXDXAXAXAX",
"GXDXO.V G j.h.g.d.s.F D m _  .e.X.w.[.|.#X3X4X8XiXkXjXrX~.{ j / x.h W.]._.W.} ( P P q q J z w J l w z k e ; 2 = $ (.AXDXAXAXAXAX",
"DXGX~ V F j.a.a.d.G F N =.#.K _ ~ 0. .e.{.|.1X3X4X9X9XiXlXzXkXeX).Y.c.].T...e.P J L J 4 9 J H k l k w w 3 2 % = Q.AXDXAXAXAXAXAX",
"DXHXM c C g.D a.g.C F B +.| `.P.P.P.P.' ! [..X X4X9X9X8X9X9XjXlXbXvXrXR.`  ...T L H l b 9 5 q q 4 q z 5 * % m y.BXAXGXAXAXAXAXAX",
"DXsXc c C F B D D v F P P.W...#.@XGXDXZX,X .{. X&X1X4X9X8X9X8X8XtXuXlXjX(.o.X.| 0 s J k k : 4 5 5 ; ; & % P i.iXAXAXAXAXAXAXAXAX",
"dX).F.A.G F S F S M C U } E >.:.@.OXDXDXGXfXO.{. X1X4X8X4X4X0X4X6XtXyXpXlXvXv.P K 5 L q 8 4 9 9 3 4 4 2 b i.@XAXAXAXAXAXAXAXAXAX",
"c.D.L.F.F.F.F.N.S.F.D.Y Z :.*.*.*.@.y.BXAXAX,X! |. X1X2X3X2X4X3X4X6X9XtXuXkXxXq 8 2 6 w 6 2 % * : 3 8 & Q S.BXAXAXAXAXAXAXAXAXAX",
"gXeX%X).A.D.B.V.F.aXcX].+.*.&.*.=.-.=.0.kXAX-X| ..|. X;X1X;X;X1X1X1X4X9XtXtXlXc.$ 7 & 7 3 * & 3 3 2 & 2 1.zXAXAXAXAXAXAXAXAXAXAX",
"AXAXAXDXHXmXfXeX'.).].W.E *.*.&.&.-.-.=.#.OX!.{.s _ {..X1X1X#X#X;X1X1X4X6X8XyX<X- * & % 3 3 & & & * e ;.iXAXDXAXAXAXAXAXAXAXAXAX",
"AXGXDXDXAXAXAXAXDXDXHXMX&XZ *.*.&.&.&.*.&.#.:.2.~ H U {.|..X.X.X X X;X1X4X6X8XkX/ $ & % * 3 & z Q 2.6.iXAXAXAXAXAXAXAXAXAXAXAXAX",
"AXAXAXAXDXDXDXGXGXAXAXDXAX5X@.%.-.&.&.&.&.*.&.=.:.=.W I w.{.|.|.{.|..X;X1X4X4XqX!.* & & & = # P i.8.iXAXDXAXAXAXAXAXAXAXAXAXAXAX",
"AXAXAXAXAXDXAXAXAXAXAXDXAXAXkX<.#.*.*.&.*.&.&.*.&.*.:.+.L | w.C.w.w.w.{.#X;X3X6X4X0 2 # # 8 Q $.i.pXZXAXAXDXAXAXAXAXAXAXAXAXAXAX",
"AXAXAXAXAXAXAXAXAXAXAXAXAXDXAXBXS.#.&.&.&.-.*.*.*.*.*.*.*.E L Y _ _ | O.|.$X1X4X8Xu & 8 R <.6.S.MXgXZXAXAXAXDXAXAXAXAXAXAXAXAXAX",
"AXAXAXAXAXAXAXAXAXAXAXAXAXAXAXAXAX0X-.#.&.-.*.*.*.&.*.=.*.-.=.+.E E E !  .[..X}.X.E Q 3.:.8.kXmXU.`.DXAXAXDXAXAXAXAXAXAXAXAXAXAX",
"AXAXAXAXAXAXAXAXAXAXAXAXAXAXAXAXDXAXBX+X*.@.%.*.*.&.-.&.&.&.*.*.-.:.:.*.E ~ ~ $.-.:.:.4.+XBXsX_.dXgXAXAXAXAXAXAXAXAXAXAXAXAXAXAX",
"AXAXAXAXAXAXAXAXAXAXAXAXAXAXAXAXAXDXAXAXBX2Xq.&.@.@.&.&.-.-.*.&.*.-.*.-.:.>.>.&.-.q.2XGXmX`.sXGXAXAXAXAXAXAXAXAXAXAXAXAXAXAXAXAX",
"AXAXAXAXAXAXAXAXAXAXAXAXAXAXAXAXAXAXDXDXAXAXDXzX5XoX0.*.#.@.A #.#.#.#.@.&.0.oX0XzXAXAXAXGXZXAXDXAXAXAXDXAXAXAXAXAXAXAXAXAXAXAXAX",
"AXAXAXAXAXAXAXAXAXAXAXAXAXAXAXAXAXAXAXAXAXDXDXAXAXAXGXNXkX5X2X+X+X2XwXkXNXDXAXAXAXDXDXAXAXAXDXAXAXAXDXAXAXAXAXAXAXAXAXAXAXAXAXAX",
"AXAXAXAXAXAXAXAXAXAXAXAXAXAXAXAXAXAXAXAXAXAXAXDXDXDXAXDXDXAXAXDXAXAXAXAXAXAXAXDXDXAXAXAXAXAXAXAXAXAXAXAXAXAXAXAXAXAXAXAXAXAXAXAX",
"AXAXAXAXAXAXAXAXAXAXAXAXAXAXAXAXAXAXAXDXAXAXAXAXAXAXAXDXDXDXDXDXDXDXDXDXAXAXAXAXAXAXAXAXAXAXAXAXAXAXAXAXAXAXAXAXAXAXAXAXAXAXAXAX",
"AXAXAXAXAXAXAXAXAXAXAXAXAXAXAXAXAXAXAXAXAXAXAXAXAXAXAXAXAXDXDXAXAXAXAXAXAXAXAXAXAXAXAXAXAXAXAXAXAXAXAXAXAXAXAXAXAXAXAXAXAXAXAXAX",
"AXAXAXAXAXAXAXAXAXAXAXAXAXAXAXAXAXDXAXAXAXAXAXAXAXAXDXAXAXAXAXAXAXAXAXAXAXAXAXAXAXAXAXAXAXAXAXAXAXAXAXAXAXAXDXAXAXAXAXAXAXAXAXAX"
};
