/* XPM */
static char *_d972484102e4c169c64a9beeeb74dcdXjDmjBgULLEkkz9c[] = {
/* columns rows colors chars-per-pixel */
"64 64 199 2 ",
"   c None",
".  c #000000",
"X  c #0B0707",
"o  c #1C1918",
"O  c #2B1E1D",
"+  c #241716",
"@  c #391919",
"#  c #2E211F",
"$  c #342422",
"%  c #362C2A",
"&  c #3C2B29",
"*  c #382726",
"=  c #3C312E",
"-  c #2F2220",
";  c #4A1E18",
":  c #5E271F",
">  c #62261D",
",  c #442C2B",
"<  c #492F2E",
"1  c #4E2421",
"2  c #5B2621",
"3  c #413532",
"4  c #483A34",
"5  c #4F342E",
"6  c #642A23",
"7  c #6C2E2A",
"8  c #662B25",
"9  c #6E302C",
"0  c #71322E",
"q  c #753432",
"w  c #793635",
"e  c #7E3939",
"r  c #7C3937",
"t  c #544339",
"y  c #5A473C",
"u  c #624D3F",
"i  c #3C4142",
"p  c #634F40",
"a  c #634F48",
"s  c #6D5444",
"d  c #755A48",
"f  c #B63B1F",
"g  c #83372B",
"h  c #8F3C2F",
"j  c #823D3C",
"k  c #8A3C38",
"l  c #B33A21",
"z  c #85413E",
"x  c #95403A",
"c  c #C34A24",
"v  c #D44229",
"b  c #CC5625",
"n  c #D95929",
"m  c #DD5E31",
"M  c #E05F2B",
"N  c #DB652B",
"B  c #E36A2C",
"V  c #E4652B",
"C  c #E6772C",
"Z  c #E26A32",
"A  c #EA7E39",
"S  c #E97A34",
"D  c #8E3E46",
"F  c #8A4442",
"G  c #8C4644",
"H  c #94454C",
"J  c #934D49",
"K  c #914745",
"L  c #99524E",
"P  c #9B4D53",
"I  c #9E5454",
"U  c #9C5754",
"Y  c #A74B49",
"T  c #A35857",
"R  c #B15151",
"E  c #B85F5B",
"W  c #AC514C",
"Q  c #AC635C",
"!  c #BA625E",
"~  c #A95D60",
"^  c #8B797C",
"/  c #AF6163",
"(  c #B36B63",
")  c #B76868",
"_  c #BC726B",
"`  c #BE7773",
"'  c #DA594C",
"]  c #D5594C",
"[  c #DD5F51",
"{  c #DE6254",
"}  c #D86F53",
"|  c #E06657",
" . c #E06758",
".. c #E26C5C",
"X. c #E4705F",
"o. c #C2766D",
"O. c #C17573",
"+. c #C67C73",
"@. c #C97F73",
"#. c #CC7C78",
"$. c #C57C79",
"%. c #CA6865",
"&. c #E67463",
"*. c #E77866",
"=. c #E87967",
"-. c #E97B69",
";. c #EC4C54",
":. c #EA832E",
">. c #EA8834",
",. c #F38A3C",
"<. c #EB9734",
"1. c #F29739",
"2. c #EEA533",
"3. c #F3A83A",
"4. c #F4B33C",
"5. c #FBBD3D",
"6. c #F4B936",
"7. c #FAC23E",
"8. c #F8C838",
"9. c #EE9540",
"0. c #F5A942",
"q. c #F6B445",
"w. c #F7B645",
"e. c #F5B453",
"r. c #CD827D",
"t. c #C7817C",
"y. c #EEB869",
"u. c #EABC78",
"i. c #FCC640",
"p. c #F9C748",
"a. c #FCD849",
"s. c #FDDB57",
"d. c #FDE258",
"f. c #ECCA66",
"g. c #8C7E81",
"h. c #8E8184",
"j. c #928A8E",
"k. c #908689",
"l. c #948E91",
"z. c #959295",
"x. c #979699",
"c. c #97989C",
"v. c #999A9D",
"b. c #9B9799",
"n. c #A89794",
"m. c #B6AB9D",
"M. c #9A9EA1",
"N. c #9CABB3",
"B. c #AAACAA",
"V. c #A5A5A4",
"C. c #B6B1AF",
"Z. c #D28B85",
"A. c #D48F89",
"S. c #D08681",
"D. c #C3958C",
"F. c #D5928C",
"G. c #D6968E",
"H. c #DB9C94",
"J. c #D79790",
"K. c #CC8682",
"L. c #DEA49B",
"P. c #DDAD9D",
"I. c #DCB096",
"U. c #DFB79D",
"Y. c #C4B493",
"T. c #E0A89F",
"R. c #E0A79E",
"E. c #DFB2A1",
"W. c #E2ACA3",
"Q. c #E4B1A7",
"!. c #E6B5AA",
"~. c #E7B8AD",
"^. c #E8B8AD",
"/. c #E8B7AC",
"(. c #E9BDB2",
"). c #E8C184",
"_. c #E2C89A",
"`. c #D2CDB6",
"'. c #E3C7A6",
"]. c #EBC2B6",
"[. c #E9CDB6",
"{. c #ECC5B9",
"}. c #EDCABE",
"|. c #E7CAB2",
" X c #EAD1BA",
".X c #D7C7C4",
"XX c #D1D4C7",
"oX c #EFCDC1",
"OX c #EFD9C6",
"+X c #F0D0C4",
"@X c #F2D6CA",
"#X c #F3DACC",
"$X c #F0DDC7",
"%X c #EBD8D2",
"&X c #F2E2CD",
"*X c #F4E8D3",
"=X c #F8EFDD",
"-X c #F5E8D4",
";X c white",
/* pixels */
"                                                                                                                                ",
"                                                                                                                                ",
"                                                                                                                                ",
"                                                                                                                                ",
"                                                            ' ' ' '                                                             ",
"                                                  ' ' ' ' ' ' ' ' ' ' ' ' ' '                                                   ",
"                                            [ [ [ ' [ ' ' ' ' ' ' ' ' ' ' ' ' ' ' '                                             ",
"                                      | { { [ [ [ ' [ ' [ ' ' ' ' ' ' ' ' ' ' ' ' ' ' ' '                                       ",
"                                     .| | | [ { [ [ [ [ [ ' ' ' ' ' ' ' ' ' ' ' ' d s u y 4 4 3 .                               ",
"                                .... . .| | | | | [ [ [ [ [ [ ;.' ' ' ' ' ' ' . d s y 4 3 3 3 3 * $                             ",
"                              .......... .| | | | [ | ' [ [ [ [ ' ' ' ' ' ' ' @XoXt /./././.o & $ $ $ .                         ",
"                            &.&.&......... . .| | | |                     ' +XoX(.^././././.W.#.$ $ $ $                         ",
"                        &.&.&.&.X........... . .                            +X{.(./.^.^.^.^.W.Z.+ * * * *                       ",
"                        &.*.&.&.&.X.&...X...                              @XoX(././.^.^././.W.Z.#.1 , , ,                       ",
"                      =.*.*.&.&.&.&.&.&.                                  @X}.^.^.^.^.^.^./.W.Z., , , * ,                       ",
"                    -.=.=.=.*.=.&.&.&.                                    #X{.^.^.^.^./.^./.R.A., , , , , '                     ",
"                  -.-.-.-.-.-.=.=.&.                                      . y ^.^.. t 4 3 W.H.#.< < < < < ' '                   ",
"                  =.-.-.-.-.-.-.=.                                      . . #X{.^./.& D.) #.#.#.< < < . , ' '                   ",
"                -.-.-.-.-.r.-.-.                                          .X. {.^.^.oX. j.#.#.#., , R.#.#.' ' '                 ",
"              =.-.=.-.-.-.-.-.                                            #X}.~.(./.+X/.!.J.#.#.$ #.. #.+.' ' ' '               ",
"              &.-.&.=.=.=.-.                                            . +X/.. (././.^.^.H.#.#.O #.P . . ' ' ' '               ",
"              &.&.*.-.&.=.=.                                            . oX^.@X/.#.. ^.Q.H.#.. O H.D #.' ' ' ' '               ",
"            &.&.&.&.&.=.-.                                              . oX^.Q.#.) H./.W.S.$.% O #.#.) ' ' ' ' ' '             ",
"            ..&.&.&.&.&.&.                                              p @X^.. ~././., #.$.% - O .   ' ' ' ' ' ' '             ",
"            ..X.&.&.&.&.                                                s #X(.n.%X%X.Xt.$.#.% % O D     ' ' ' ' ' '             ",
"          ....X...X...&.                                                p p }.(.D.P.F.F.r.% % O O H     [ [ ' ' ' ' '           ",
"          .. .........=X.                                               p t . ^.~.!.Q.. * * - X O T U   [ [ ' ' ' ' '           ",
"           . . .....o =X=X                                              p u t = % = % X - - $ O H ~ #.j   [ [ [ ' ' '           ",
"          | | =X=X=X=X-X=X                                                p t . = % = % $ # O H T #.#.: Y [ [ ' [ [ '           ",
"        *X*X*X&X-X-X*X&X-X$X                                              p p t 3 = % $ O O H P ~ #.#.e Y . [ [ [ ' [           ",
"      . &X*X&X[. X$X X|.$X[.                                        t.Q L . . y t & $ O . H I I #.. D w 9 2 { [ [ [ ' [         ",
"      [.$X&X|.. . . I.I.U.I.I.                                  r.@.T L ! @.R 6 #., . D H P ) #.@.J e q h : : { { [ [ [         ",
"      . $X[.6.7.i.i.w.>.;X,.                                , E.t.J K z e t.^ A.. ].F.#.+.#.#.#.F.j j q q > > : { { [ [         ",
"      |.'.I.s.5.s.d.6.:.Z ,.      .                       t.t.. %.L r j T ^ ^ . ^.^.L.. r.#.+.. : z %.+ 6 7 > : : { { {         ",
"      I.P.. s.7.s.d.5.q.e..   oX{.].#X                  @.5 . J z r r . ^ h.l.z.. ^.. L.#.l.l.#.: j . Y 0 9 0 7 : : |           ",
"      P.q.p.s.7.s.a.p.0.e.. O D.. #.].+X.             r.E.r.U E r j . ^ j.j.l.z.x.c.c.x.z.. t.: : . K k e W w 0 8 : |           ",
"        w.w.d.p.a.8.4.1.9.  /./.^.(.].].oX.           @.r.I K k e e ^ j.j.l.z.z.c.M.b.x.o.+.F . T ` w e Y w q x : :  .          ",
"      . q.w.i.7.a.8.4.>.9.. X Q./././.(.{.#X        @.@.( G z r e ^ j.z.z.z.x.b.v.c.c.. +.F @.U z W 2 r w q 7 8 : 6  .          ",
"      m 0.q.7.6.8.8.4.A 9./.!.L./.^././.].#X        @.T.J F e e ^ h.j.b.z.x.b.v.b.c.b._ e ` o.z . r r K q 0 8 : : :  .          ",
"      V 1.2.i.6.4.6.<.S 1.  W.!./.^.^./.].oX.       U.t.L j R ^ ^ f.+ M.x.c.v.v.b.b.t.t.t.P.J F j r e q 9 8 6 2 : g .           ",
"      n 1.>.i.2.<.6.:.q.. K.H.W././././.(.].oX    @.@.. K e f.f.f.f.k.V.v.v.v.v.v.v.t.( t.F j j j e r w 9 6 : : : : .           ",
"      >.:.:.<.2.a.3.C S ' #.K.J.H.R.!.!./.(.(.oX  t.@.@.F e f.f.. h.. V.b.v.v.M.. . G.x j R e e r e r w 9 6 : : : :             ",
"      B :.w.<.2.4.3.V >.' #./ ) Z.J.R.W.!.!.(.(.oX+X#.I K @ . . ;.. . V.M.v.M.. Q ( U R e R k r e R e q 9 2 : : : :             ",
"    . n C 4.<.<.3.S N A ' ~ _ ) O.#.S.F.R.W.!.(.(.].oX@X#X. ^ ^ f.g.C.B.v.v.r.T J J F r e e e j e e e e 9 : : : :               ",
"    v c B 3.:.>.1.C n S ' ' . T ) O.O.#.#.J.L.W.~.(.(.{.oX+X#X#X#X. C.B.M.@.Q J z z j r e e e e e e e q 9 g : ; *.              ",
"    v f b 1.N C 1.V n S ' ' B.i . . D T / S.A.R.Q.(.(.(.(.(.{.}.@X#X#XB.. @.p ( ) z j r e e e e e w 9 7 : . -.*.                ",
"    v l V S b b b b c . N.B.. ' '         #.S.H.T.Q.~.~.(.(.(.].{.oXoX#X. +._ ( . K z r r . 7 x 7 0 6 . 6 -.-.                  ",
"  Y._._.N C N N N l m N.. ' ' ' ' '         #.Z.H.W.Q.~.~.!.!.(.^.].{.oXoX#X. T K j E w 0 7 q 0 q 9 7 8 . -.-.                  ",
"XX'.f.y.y.y.u.u.)._.} . ' ' ' ' ] ' '         #.F.L.R.W.!.Q.Q.Q.Q.(.~.{.{.oX#X1 9 . . 0 x 6 : 6 . X h : =.-.                    ",
"    X I.u.y.y.y.y.).`.XX' ' ' ' ' ' ' '     . P.#.F.H.T.W.W.W.W.W.E.!.(.(.{.oX#X: : 7 7 6 6 . : : : : : =.                      ",
"                . Y.`.m.' ' ' ' ' ' ' ' ' ' @.@.#.t.Z.J.L.P.L.L.T.T.Q.Q.(.(.{.{.: g : . : : : : : : . *.                        ",
"                        ' ' ' ' ' ' ' ' ' ' ' ' o.z #.r.Z.L.L.H.J.L.L.W.Q.!.(.].. g : . 2 g : . &.&.&.&.                        ",
"                            ' ' ' ' ' ' ' ' ' ' ' ' ' P +.K.F.J.F.A.H.T.W.!.~.(.].: : : : : : X...&.                            ",
"                              ' ' ' ' ' ' ' ' ' ' ' ' ' . O.O.#.` ` t.F.L.W.!.!./.: : : : 6 ......                              ",
"                                ' ' ' ' ' ' ' ' ' ' ' ' ' ' P / ) ) ) ` A.L.W.Q./.: : .  . ... .                                ",
"                                    ' ' ' ' ' ' ' ' ' ' ' ' ' ' [ ] [ . ` Z.H.L.+ { { |  . .    .                               ",
"                                      ' ' ' ' ' ' ' ' ' ' ' ' ' ] [ ' [ ' ] [ [ [ { { { |     .   .                             ",
"                                            ' ' ' ' ' ' ' ' ' ' ' ] ' ' ' [ ' [ [ {                                             ",
"                                                  ' ' ' ' ' ' ' ' ' ' ' ' ' '                                                   ",
"                                                            ' ' ' '                                                             ",
"                                                                                                                                ",
"                                                                                                                                ",
"                                                                                                                                ",
"                                                                                                                                "
};
