/* XPM */
static char *fd88645574d14196d3bd836dc8351453O4EDQAhVsjBRePub[] = {
/* columns rows colors chars-per-pixel */
"64 64 199 2 ",
"   c None",
".  c #030202",
"X  c #0B0707",
"o  c #1C1918",
"O  c #2B1E1D",
"+  c #241716",
"@  c #391919",
"#  c #2E211F",
"$  c #342422",
"%  c #312C2C",
"&  c #3C2B29",
"*  c #382726",
"=  c #3C312E",
"-  c #2F2220",
";  c #4A1E18",
":  c #5E271F",
">  c #62261D",
",  c #442C2B",
"<  c #492F2E",
"1  c #4E2421",
"2  c #5B2621",
"3  c #413532",
"4  c #483A34",
"5  c #4F342E",
"6  c #642A23",
"7  c #6C2E2A",
"8  c #662B25",
"9  c #6E302C",
"0  c #71322E",
"q  c #753432",
"w  c #793635",
"e  c #7E3939",
"r  c #7C3937",
"t  c #544339",
"y  c #5A473C",
"u  c #624D3F",
"i  c #3C4142",
"p  c #634F40",
"a  c #634F48",
"s  c #6D5444",
"d  c #755A48",
"f  c #B63B1F",
"g  c #83372B",
"h  c #8F3C2F",
"j  c #823D3C",
"k  c #8A3C38",
"l  c #B33A21",
"z  c #85413E",
"x  c #95403A",
"c  c #C34A24",
"v  c #D44229",
"b  c #CC5625",
"n  c #D95929",
"m  c #DD5E31",
"M  c #E05F2B",
"N  c #DB652B",
"B  c #E36A2C",
"V  c #E4652B",
"C  c #E6772C",
"Z  c #E26A32",
"A  c #EA7E39",
"S  c #E97A34",
"D  c #8E3E46",
"F  c #8A4442",
"G  c #8C4644",
"H  c #94454C",
"J  c #934D49",
"K  c #914745",
"L  c #99524E",
"P  c #9B4D53",
"I  c #9E5454",
"U  c #9C5754",
"Y  c #A74B49",
"T  c #A35857",
"R  c #B15151",
"E  c #B85F5B",
"W  c #AC514C",
"Q  c #AC635C",
"!  c #BA625E",
"~  c #A95D60",
"^  c #8B797C",
"/  c #AF6163",
"(  c #B36B63",
")  c #B76868",
"_  c #BC726B",
"`  c #BE7773",
"'  c #DA594C",
"]  c #D5594C",
"[  c #DD5F51",
"{  c #DE6254",
"}  c #D86F53",
"|  c #E06657",
" . c #E06758",
".. c #E26C5C",
"X. c #E4705F",
"o. c #C2766D",
"O. c #C17573",
"+. c #C67C73",
"@. c #C97F73",
"#. c #CC7C78",
"$. c #C57C79",
"%. c #CA6865",
"&. c #E67463",
"*. c #E77866",
"=. c #E87967",
"-. c #E97B69",
";. c #EC4C54",
":. c #EA832E",
">. c #EA8834",
",. c #F38A3C",
"<. c #EB9734",
"1. c #F29739",
"2. c #EEA533",
"3. c #F3A83A",
"4. c #F4B33C",
"5. c #FBBD3D",
"6. c #F4B936",
"7. c #FAC23E",
"8. c #F8C838",
"9. c #EE9540",
"0. c #F5A942",
"q. c #F6B445",
"w. c #F7B645",
"e. c #F5B453",
"r. c #CD827D",
"t. c #C7817C",
"y. c #EEB869",
"u. c #EABC78",
"i. c #FCC640",
"p. c #F9C748",
"a. c #FCD849",
"s. c #FDDB57",
"d. c #FDE258",
"f. c #ECCA66",
"g. c #8C7E81",
"h. c #8E8184",
"j. c #928A8E",
"k. c #908689",
"l. c #948E91",
"z. c #959295",
"x. c #979699",
"c. c #97989C",
"v. c #999A9D",
"b. c #9B9799",
"n. c #A89794",
"m. c #B6AB9D",
"M. c #9A9EA1",
"N. c #9CABB3",
"B. c #AAACAA",
"V. c #A5A5A4",
"C. c #B6B1AF",
"Z. c #D28B85",
"A. c #D48F89",
"S. c #D08681",
"D. c #C3958C",
"F. c #D5928C",
"G. c #D6968E",
"H. c #DB9C94",
"J. c #D79790",
"K. c #CC8682",
"L. c #DEA49B",
"P. c #DDAD9D",
"I. c #DCB096",
"U. c #DFB79D",
"Y. c #C4B493",
"T. c #E0A89F",
"R. c #E0A79E",
"E. c #DFB2A1",
"W. c #E2ACA3",
"Q. c #E4B1A7",
"!. c #E6B5AA",
"~. c #E7B8AD",
"^. c #E8B8AD",
"/. c #E8B7AC",
"(. c #E9BDB2",
"). c #E8C184",
"_. c #E2C89A",
"`. c #D2CDB6",
"'. c #E3C7A6",
"]. c #EBC2B6",
"[. c #E9CDB6",
"{. c #ECC5B9",
"}. c #EDCABE",
"|. c #E7CAB2",
" X c #EAD1BA",
".X c #D7C7C4",
"XX c #D1D4C7",
"oX c #EFCDC1",
"OX c #EFD9C6",
"+X c #F0D0C4",
"@X c #F2D6CA",
"#X c #F3DACC",
"$X c #F0DDC7",
"%X c #EBD8D2",
"&X c #F2E2CD",
"*X c #F4E8D3",
"=X c #F8EFDD",
"-X c #F5E8D4",
";X c white",
/* pixels */
"                                                                                                                                ",
"                                                                                                                                ",
"                                                                                                                                ",
"                                                                                                                                ",
"                                                            ' ' ' '                                                             ",
"                                                  ' ' ' ' ' ' ' ' ' ' ' ' ' '                                                   ",
"                                            [ [ [ ' [ ' ' ' ' ' ' ' ' ' ' ' ' ' ' '                                             ",
"                                      | { { [ [ [ ' [ ' [ ' ' ' ' ' ' ' ' ' ' ' ' ' ' ' '                                       ",
"                                     .| | | [ { [ [ [ [ [ ' ' ' ' ' ' ' ' ' ' ' ' d s u y 4 4 = %                               ",
"                                .... . .| | | | | [ [ [ [ [ [ ;.' ' ' ' ' ' ' % s s y 4 4 3 3 , * $                             ",
"                              .......... .| | | | [ | ' [ [ [ [ ' ' ' ' ' ' ' @X}.y ^.^././.o & $ $ $ &                         ",
"                            &.&.&......... . .| | | |                     ' +XoX(.^.^.^./.!.W.#.$ $ $ $                         ",
"                        &.&.&.&.X........... . .                            +X{.(./././././.W.Z.+ $ * 1 *                       ",
"                        &.*.&.&.&.X.&...X...                              @XoX(././.(./.^./.W.Z.#., & * &                       ",
"                      =.*.*.&.&.&.&.&.&.                                  @X}.^./.(././././.W.Z., , , , ,                       ",
"                    -.=.=.=.*.=.&.&.&.                                    #X{.^././././.(.!.R.A., , , , < '                     ",
"                  -.-.-.-.-.-.=.=.&.                                      % y ^.^.% y 4 4 T.H.#.< < < < < ' '                   ",
"                  =.-.-.-.-.-.-.=.                                      % % #X{.^./.& D./ #.#.#., < < % < ' '                   ",
"                -.-.-.-.-.r.-.-.                                          .X% {.^.^..X% n.#.#.#., , L.#.#.' ' '                 ",
"              =.-.=.-.-.-.-.-.                                            #X}.~.(.^.+X/.W.F.#.#.- #.% #.O.' ' ' '               ",
"              &.*.-.&.=.=.-.                                            % +X~.% ^.^.^.^./.H.#.#.- #.P % % ' ' ' '               ",
"              &.&.=.-.&.=.=.                                            % oX^.@X^.#.% ^.Q.H.#.% O J.D #.' ' ' ' '               ",
"            &.&.&.&.&.=.-.                                              % }.^.Q.#.) H./.W.S.#.% O #.#.) ' ' ' ' ' '             ",
"            ..&.&.&.&.&.&.                                              u @X^.% ~.^./., #.#.% $ O %   [ ' ' ] ' ' '             ",
"            ..&.&.&.&.&.                                                p #X(.m.%X%X.X#.#.#.& % O D     ' ' ' ' ' '             ",
"          ........X.X.X.                                                p p }./.D.T.F.F.r.% % O O H     [ [ ' ' ' ' '           ",
"          .. .........=X%                                               p y % /.^./.E.% % $ - X O T U   [ [ [ ' ' ' '           ",
"           . . .....o =X=X                                              p p 4 = % = % X $ - $ O P ~ #.e   [ [ ' ' ' '           ",
"          | | =X=X=X=X-X=X                                                p t % = = % * * O O H P #.#.> Y [ ' [ [ [ '           ",
"        *X*X*X&X-X-X*X&X-X$X                                              p p t 4 % % * O O H P ~ #.#.e Y % [ [ [ ' [           ",
"      % &X*X&X[. X$X X|.$X[.                                        @.Q L . % y t & - O % H I I #.% D w 9 : | [ [ [ ' [         ",
"      [.$X&X|.% % % I.I.U.I.I.                                  r.@.T L ! t.R 2 #.< % D H P ) #.+.J e q h : : [ | [ [ [         ",
"      % $X[.6.5.5.i.5.>.;X,.                                , P.t.J K F r t.^ A.% (.F.#.#.#.#.#.F.z r q q > > : { { [ [         ",
"      [.'.I.s.5.s.d.5.S Z ,.      %                       t.t.% ! I e j T ^ ^ % /.^.L.% r.#.#.% : z %.+ 6 7 6 : : { { {         ",
"      I.P.% s.7.s.d.5.q.e.%   {.{.{.#X                  r.5 % J x r r % ^ h.l.z.% ^.% L.#.l.j.+.: r & Y 0 7 0 7 : : |           ",
"      I.q.p.s.7.s.a.p.0.e.% + m.% #.].oX%             r.I.r.T E r r % g.j.j.l.z.x.c.c.z.z.% t.2 : % G j e R w q 8 : |           ",
"        q.w.d.p.a.8.6.1.,.  /././.(.{.(.oX%           @.#.T G j r r ^ j.j.z.z.z.v.v.c.x.o.t.F % Q _ r j Y w q h : :  .          ",
"      % q.w.i.i.a.8.0.>.9.% X Q.Q.^./.(.{.#X        @.@.( G z r r ^ j.l.l.z.z.c.v.c.c.% @.z t.U z W 1 r r q 7 6 : 6  .          ",
"      m 0.q.p.6.8.6.4.>.9.^.^.H././.^.^.{.#X        @.T.J F e e ^ k.j.b.z.x.v.v.v.c.c._ r o.o.z % r r K 9 0 8 : : :  .          ",
"      N 1.2.i.6.6.6.<.S 1.  Q.!./.^.^.^.].oX%       U.t.L j R ^ ^ f.O b.x.c.v.v.v.c.@.@.@.I.J F r r j q 7 7 6 > : g %           ",
"      n 1.>.7.3.<.6.:.q.% K.H.W././././.(.].oX    @.@.% K e f.f.f.f.k.V.v.b.v.v.v.v.t.( t.F j j e e e q 9 6 : : : : %           ",
"      >.>.:.<.2.a.3.C C ' $.S.J.H.R.Q./.(.(.(.oX  @.@.@.F e f.f.% h.% V.v.b.v.M.% % G.x j R e e e e e w 9 6 : : : :             ",
"      B S 5.<.2.4.3.V A ' $./ ) Z.J.R.W.Q.!.(.(.oX+X@.U K @ . % ;.% % V.M.v.M.% Q ) U W e R k e e R e q 9 2 : : : :             ",
"    % n C 4.<.<.3.S V >.' / _ ) O.#.S.F.R.W.!.(.(.].oX@X#X% ^ ^ f.g.C.V.v.v.r.T J K x u e e e e e e e e 9 : : : :               ",
"    v c B 3.:.<.1.B n A ' ' % T / O.O.#.#.J.R.W.(.(.(.{.oX+X#X%X#X% C.B.M.#.Q L x F j e e e e e e e e q 9 g : ; *.              ",
"    v f c 1.N C 1.V n S ' ' B.i % % D T / S.A.R.W.(.(.(.(.(.{.oX@X#X#XB.% @.p ( ) z j r e e e e e w 0 9 : % -.*.                ",
"    v f B S b c b b c % N.B.% ' '         #.S.H.W.W.^.~.~.(.(.(.{.oXoX#X% +._ Q % K j r r . 7 x 9 9 : % 6 -.-.                  ",
"  Y._._.N B N C N l m N.% ' ' ' ' '         #.Z.H.W.Q.~.~.~.~.~.(.(.{.oXoX#X% T F j E r 9 7 q 0 q 7 9 8 % -.-.                  ",
"XX'.f.y.y.y.u.I.f.'.} % ' ' ] ' ] ' '         #.F.L.R.W.!.Q.!.Q.Q.~.~.{.{.}.#X1 9 % % 0 x 6 : 6 % X h : -.-.                    ",
"    & I.f.y.y.y.y.).`.XX' ' ' ' ' ' ' '     % P.#.F.H.T.W.W.W.W.W.Q.~.(.(.{.}.#X: 6 8 7 6 6 % : : : : : =.                      ",
"                = Y.`.m.' ' ' ' ' ' ' ' ' ' @.@.@.r.Z.J.R.R.L.L.L.W.Q.Q.(.(.].{.: g : % 2 : : : : 2 . &.                        ",
"                        ' ' ' ' ' ' ' ' ' ' ' ' o.z $.r.A.R.H.H.J.L.L.W.Q.~.].{.% g : % : g : % &.&.&.&.                        ",
"                            ' ' ' ' ' ' ' ' ' ' ' ' ' P #.r.F.J.F.A.L.L.W.!.~.^.].: : : : : : X...&.                            ",
"                              ' ' ' ' ' ' ' ' ' ' ' ' ' % ` O.#.` ` $.F.L.W.!.!.~.: : : : 6 ......                              ",
"                                ' ' ' ' ' ' ' ' ' ' ' ' ' ' P ~ ) ) ) ` F.L.T.Q.~.: : %  . . ...                                ",
"                                    ' ' ' ' ' ' ' ' ' ' ' ' ' ' ] [ ] % O.Z.H.T.o { { {  . .    %                               ",
"                                      ' ' ' ' ' ' ' ' ' ' ' ' ' ] [ ' ' [ ' [ [ [ { { { {     %   %                             ",
"                                            ' ' ' ' ' ' ' ' ' ' ' ' ' ' ' [ [ ' [ {                                             ",
"                                                  ' ' ' ' ' ' ' ' ' ' ' ' ' '                                                   ",
"                                                            ' ' ' '                                                             ",
"                                                                                                                                ",
"                                                                                                                                ",
"                                                                                                                                ",
"                                                                                                                                "
};
