/* XPM */
static char *c0e23cf905c54f7192c877449a1a6317sWvGktfTyVcZ8mxC[] = {
/* columns rows colors chars-per-pixel */
"64 64 223 2 ",
"   c #040200",
".  c #0C0601",
"X  c #0D0A05",
"o  c #0E0B08",
"O  c #140D04",
"+  c #140D0A",
"@  c #1A0F09",
"#  c #180E06",
"$  c #15120B",
"%  c #1B130B",
"&  c #1D1A0D",
"*  c #191206",
"=  c #1C1B14",
"-  c #1B1713",
";  c #22140A",
":  c #231B0C",
">  c #2B190E",
",  c #31180A",
"<  c #221711",
"1  c #241C12",
"2  c #2C1D13",
"3  c #251D18",
"4  c #311C15",
"5  c #200F08",
"6  c #2A210E",
"7  c #252113",
"8  c #2C2315",
"9  c #22231C",
"0  c #2D241A",
"q  c #2D291B",
"w  c #322215",
"e  c #33251B",
"r  c #3A2619",
"t  c #322A1C",
"y  c #3C2C1D",
"u  c #3C2317",
"i  c #39321D",
"p  c #292823",
"a  c #3B2D22",
"s  c #332B22",
"d  c #3B3422",
"f  c #3C3A2E",
"g  c #383526",
"h  c #3E3E34",
"j  c #432D1E",
"k  c #472819",
"l  c #522E1E",
"z  c #492E22",
"x  c #532F21",
"c  c #433323",
"v  c #4A3324",
"b  c #43362A",
"n  c #4C3A2B",
"m  c #473A28",
"M  c #533525",
"N  c #553C2C",
"B  c #5A3B2C",
"V  c #563529",
"C  c #4B3F33",
"Z  c #5D3C30",
"A  c #623D2A",
"S  c #48432C",
"D  c #5C432E",
"F  c #54432F",
"G  c #4A4532",
"H  c #48473A",
"J  c #544333",
"K  c #5B4432",
"L  c #514B35",
"P  c #5D4932",
"I  c #5C4B39",
"U  c #594739",
"Y  c #5A533A",
"T  c #644534",
"R  c #624B34",
"E  c #634C3B",
"W  c #6A4D3B",
"Q  c #6B4738",
"!  c #64523C",
"~  c #6B523D",
"^  c #73523F",
"/  c #6B4734",
"(  c #5B5947",
")  c #5C5E51",
"_  c #714E41",
"`  c #695641",
"'  c #6B5B44",
"]  c #675745",
"[  c #725542",
"{  c #735A45",
"}  c #7B5A45",
"|  c #745C49",
" . c #7C5D4A",
".. c #7A5744",
"X. c #615F50",
"o. c #5F6257",
"O. c #63634D",
"+. c #6C644B",
"@. c #73624C",
"#. c #7C624D",
"$. c #706047",
"%. c #666453",
"&. c #7A6954",
"*. c #78765D",
"=. c #7C7C64",
"-. c #7B7965",
";. c #835E4A",
":. c #805E45",
">. c #85604B",
",. c #856B54",
"<. c #896854",
"1. c #936E55",
"2. c #8D725C",
"3. c #94745D",
"4. c #9B745C",
"5. c #90684F",
"6. c #A0785F",
"7. c #A1775F",
"8. c #857D64",
"9. c #9D7661",
"0. c #957B63",
"q. c #9B7D64",
"w. c #987B66",
"e. c #A47F68",
"r. c #A47F66",
"t. c #83846B",
"y. c #89856C",
"u. c #9E836A",
"i. c #978267",
"p. c #898977",
"a. c #8E927B",
"s. c #92947E",
"d. c #9B967A",
"f. c #9B997D",
"g. c #97977B",
"h. c #A4846B",
"j. c #AA856D",
"k. c #AC896E",
"l. c #A48469",
"z. c #AB8B73",
"x. c #AD8B76",
"c. c #B18E73",
"v. c #AF9177",
"b. c #B29076",
"n. c #B4947B",
"m. c #BA957C",
"M. c #BA997F",
"N. c #B7987C",
"B. c #939682",
"V. c #959A84",
"C. c #9B9C85",
"Z. c #969E89",
"A. c #9B9E89",
"S. c #989782",
"D. c #8F9782",
"F. c #A19E84",
"G. c #A09F89",
"H. c #BD9B82",
"J. c #BA9E88",
"K. c #9DA186",
"L. c #97A08C",
"P. c #9DA18A",
"I. c #9DA691",
"U. c #A2A286",
"Y. c #A3A38A",
"T. c #A5A98D",
"R. c #A9A98D",
"E. c #A3A692",
"W. c #A4AA93",
"Q. c #A9AD96",
"!. c #A6AE99",
"~. c #AAAE99",
"^. c #ACB197",
"/. c #A7B09A",
"(. c #ACB39C",
"). c #AFB89E",
"_. c #A6B097",
"`. c #B2B396",
"'. c #B2B59C",
"]. c #B5B99D",
"[. c #BBBC9E",
"{. c #AFB7A0",
"}. c #AEB8A0",
"|. c #B2B7A0",
" X c #B5BAA2",
".X c #BABDA2",
"XX c #BDBDA3",
"oX c #BEBDA1",
"OX c #B8BBA5",
"+X c #BABCA4",
"@X c #B9BDA6",
"#X c #BBBDA7",
"$X c #B9BDA6",
"%X c #BEBEA5",
"&X c #BABCA4",
"*X c #BABDA8",
"=X c #BBBFA8",
"-X c #BBBCAA",
";X c #BCBEA9",
":X c #BDBFAA",
">X c #BEBEA9",
",X c #BBBEA9",
"<X c #B7BCA8",
"1X c #C29E84",
"2X c #C29F8B",
"3X c #C5A186",
"4X c #C5A389",
"5X c #CAA58B",
"6X c #CDA88E",
"7X c #CAA991",
"8X c #D3AE94",
"9X c #C0BD9F",
"0X c #C1BEA2",
"qX c #C2BFA5",
"wX c #C0BFA3",
"eX c #C0BFAA",
"rX c #BDC0A5",
"tX c #BEC0AA",
"yX c #BDC1A9",
"uX c #C1C0A6",
"iX c #C1C0A4",
"pX c #C0C0A8",
"aX c #C2C1AA",
/* pixels */
"[.9X0X0X0XiXwXqXuXqXaXuXuXpXpXpXeXaXaXeXtX>X:X:X:X:X:XtXtX:XtX:X:XtX:X>X>X:X:X:X:X:X-X-XtXtXtX:X:X-X-XeX>XeX>XeX+XwXXXXXXXoXqXoX",
"9X0X0XqXiXuXaXuXuXaXaXaXpXpXpXpXeXeXeXtX>XtX:X:X:X:XtX:X>X>X:X:X:X:X:XtXtX:X:X:X:X=X-X-XtXtX-X:X:X:X-XeXeX-XeX%XwX-X%X+XwX+XoXoX",
"9X9XqXqX0XuXwXeXqXaXaXpX%XyXpXeXyX>XyX=XyX=XtX:X:X:X:X:X=X=X>X=XtX=X=X=X<XyX:X:X:X>X-X:X:X:X:X-X<X>X%X>X>X&X>X>XeXqX+X0X[.[.oXoX",
"9X9X0X0X0XuXuXwXaXaXuXpX%X%XpX>X>X=X>X=X=X=X=X=X=X:X<X:X=X=X=X=X=X=X=X>X=X=X=X=X<X:X-X-X:X:X-X-X-X=X>X&X=X=X=X>X%X+XoX+X0X0XXX[.",
"9X9X9X0X0X9X0XuXwXwX%X%X$XrXrX%X>XyXyXyX=XyX=XyX=X=X=X<X>X$X>X=X=X=X$X$XtXyX=X<X-X%X<X<X=X=X=X$X=X$X<X-X+X-X+X+XoX+X+XoXoXoX[.[.",
"9X9X9X9X0X0XwX0XwXwX%X%XrX%X%X%X=XyX=X=X=X$X=X=X=X=X-X<X=X$X<X=X@X$X=X$XyX<X=X=X<X<X>X&X<X=X$X$X$X=X&X&X-X+X&X&X&XoXoXoXoX[.[.[.",
"9X9X9X9X0X0X%X0XpX%X%X$X.XrXXX.X$X$XyX$X$X$X$X$X<X<X-X&X<X@X<X$X@X@X@X@X X<X<X<X&X<X$X$X&X@X<X&X$X&X&XOX+X+X&XOX&X&XOX&X&X[.[.[.",
"9X9X[.9X[.0X%X%XXX%X%X$X.X.X.X%X$X@X.X.X@X.X$X@X&X<X&X<X<X.X<X X@X@X<X<X&X<X&X<X&X<X&X X<X<X.X$X<X&X&X<X+X&XOXoX XoXoX&X[.&X[.[.",
"[.[.[.[.rX[.rX[.XX.X$X.X.X.X&X&X+X-X&X<X$X$X@X@X@X<X@X@X@X@X.X@X X X@X@X<X X@X X<X.X X X X<X X X&XOXOXOXOXOXOXOXOXoX X&X[.[.[.[.",
"[.9X[.[.[.[.[.[.[.[.$X.X.X.X&X X&X+X&X&X<X<X.X@X<X@X X X X X X@X|.@X@X|. X<X<X X X X@X X X|.&X].|.OX|.OXoX|.OXOXOX|.&X|. X[.].oX",
"[.[.].[.[.[.[.[..X]..X.X].oX&XoX&X|. X.X]..X|.|. X X.X). X X|.|.]. X|.|. X}.|. X X X}.}.]. X<X|.&X|. X|.|. X X|.|.oX|.oX[.&XoX].",
"[.`.[.[.[.[.[.[.].[.].[.].].|.'.]. X|.'.|. X X X|.|.|.].).).].'.).}.|.|.'.).{.|.}.}.}. X X'.|.|.].].|.|.|.|.|.oXoX|.|.&X].|.[.|.",
"`.`.9X[.].[.`.[.].[. X].].].].].|.].].].].'.).].|.|.|.|.).].).).).).'.|.{.).{.{.).{.(.|.{.'.{.|.|.|.'.'.|.'.|.|.'.].].].].].`.[.",
"[.[.9X`.].[.[.`.].[.].].oX'.'.].].].].).'.).].].].'.).{.).)._.^.).).(.).).{.(.{.(.).).{.{.).(.).(.|.'.'.'.~.'.'.'.].'.`.].].[.`.",
"[.`.`.[.].`.].].].&X%X$X&X&X|.].].].`.).).].].).).).|.(._._.t.t.T.W._.'.(.).(.).(.(.}.(.(.{.(.).(.'.|.|.'.'.'.'.'.'.].'.'.'.`.].",
"`.[.`.[.[.[.].'.&X%XeX>X&X&X|.].].].).].`.).'.'.(.(.T.B.*.*.*.Y *.g.T._.(.(.(.(.(.(.(.(.(.(.(.).'.(.'.(.'.'.'.'.'.'.`.'.'.].`.[.",
"9X9XiXrXrXrX].].@XyXyXpXyX$X@X).].].).).).).^._.].a.y.O.=.S S i O.t.a.I./.)._.)./.(.(.(./.}.(.(.(.(.'.{.'.(.'.'.`.'.'.'.'.'.'.'.",
"9X9XrXiXrXrX.X].@XyXyXrXyXrX@X|.). X X X].].].f.t.&.O.S g g 7 7 S O.y.T.T._.)._.(.(./.(.(.(.(.{.'.{.'.~.~.{.'.'.'.'.'.'.'.'.`.[.",
"9XiXiXiXyXyXrXrX.XyXyXyXyX@X@X.X|.|.]. X[.]..X`.t.S 8 7 & * & & & g ( *.T._._.)._./././././././.(.(.~.(.~.'.(.'.~.(.'.'.'.'.'.'.",
"iX9XrXiXrXrXrXrXyX<X<XrX.X.X@X|.)..X.X XrX].t.+.S 6 6 ; * X $ $ & & & g t.K._._.)._././.)./.}./.(.~.(.~.'.(.'.(.'.(.'.'.`.'.'.'.",
"iX[.uXrXyXrXrX@X@XrX@X@X XrX@X X)..X|..XI.O.i i i 7 * + + X $ $ $ $ * q Y *._.).)./././.}.}.}.}.{.{.{.(.{.{.'.(.~.'.'.~.'.'.'.~.",
"iXiXrXrXrXrXyXyXrXyXyX@XyX@X@X X X X.X].%.6 i i G s & + + + % + $ O O & S Y f.rXrXrX}.rX}.}.}.}.{.{. X X X|.|.|.OXOXOXOX9X|.'.'.",
"iXiXiXXXrXrX$XyXyX<X<XrX<X<X@X@X@X XyXL.f 8 : q e 0 + @ + < % + % $ O & g Y *./.}.yXrX}.}.yX}.<X X<X X X X X X<XOXOXOXOXOXOXeXeX",
"9XrXrXXXyX$X.X.X@X@XyX<X<XyX@X@XrX XrXt.7 & % O # % @ @ > a 2 ; > > # & g S h t.yX}.}.yX<X}.yX}.<X}.<X<X X<X<X<XOX-XOXOXeXeXOXeX",
"9X9XrX.XrXyX].rXyX$X$X$X$X$X@X@X X XyXt.& * O * ; ; > , y F N y r e w 2 a i t O.|. X X X<X}.<X<X<X<X<X-X<XOX<XOXOX-X-XOXOXOX-X-X",
"[.[.[.[.].).].].].].]. X X|.].].).]. XO.* * : n I ] | { @.2.,.{ W W W a 2 : : G (. X}.}.}. X}. X{.|.<X|.|.OX X<XOXOX-XeXeX-X-XwX",
"9X9X.X.XrXrXrX].&X X&X|..X.X X X X|.yXh X * J &.0.z.H.H.J.7XJ.z.u.0.2.W w * % g L.)./.{.}.}.(.}.{.(.{.{.'.(.|.|.|.OXOXOX|.oX|.oX",
"9XrX[..X[.].rXrX[.[.&X&X].]..X X X.X).g * e &.i.n.H.3X4X4X8X4X3Xm.c.q.,.F & O 8 D.rX}.}.<X}.}.}.{.{.<X|.|.|. X X|.|.|.OXOX-X|.'.",
"[.[.[.[..X[.rX].]..X].&X].].|.&X]..XW.i * L i.v.H.J.3X3X3X3X3XH.m.b.z.0.` w O 1 a.yX}.}.}.{.}. X X{.<X X XOX<X XOX&X-XOX-XOX-X-X",
"[.9X.X9X.X[.].rX X[.&X X&X X X X]. X_.g 7 ' u.v.N.H.1X5X3X3X3XM.c.b.c.q.#.c O = D.yX}.{. X X}.}.{. X|. X X X X|. X|.oXOXoXOX|.oX",
"[.[.[.[.].[.[.].[..X X X].]. X]. X.X|.G : | u.v.M.H.5X5X5X3X5XM.n.n.b.q.#.m O 7 L. X{.}.{.}. X{.}.|.|. X|. XOX|. XOXOXOXoXoXoXoX",
"[.[.[..X.X[..X[. X].]..X].]. X].|.].yXO.6 @.u.v.M.5X6X6X5X5X5X3Xm.c.z.0.#.F O 9 I.}.{.}.{.}.}.}.|.{.|.{.|. X X X|.|.|. X|.OX+X|.",
"[.[.[.9X].[.|.&XoX].oX|.].]. X|.|.'.=X8.: &.w.v.H.1X1X1X2X1XH.x.k.j.j.w.| n O s {.{.{.{.{.{.}.}.{.{.{.{.|. X|.|.|.|. X X&X&X&X].",
"].[.[.`.].].].].'.'.|.'.].].].'.].).<Xs.w @.i.v.H.e.e.e.e.e.9.9.3.9.u.w.| n O g ~.{./.(.}.(.}.}.{.{.{.|. X X|.|.'.oX|.|.]. X|.&X",
"].`.`.[.`.`.'.'.`.'.'.'.'.'.'.(.).(.'.E.d @.w.,._ _ ;.;.5.;._ V z N I { | F O G <X!./.{.(.(.(.}.(.(.{.(.{.~.|.|.'.|.|.|.|.|.<X X",
"`.`.].`.].'.'.'.'.`.'.(.(.'.(.'.'.(.).|.L ] I c 4 4 u Z ;.Z z 4 < 4 e j J J % b I.!.!.!._._.I.(.!.!.!.!.~.~.~.(.(.'.'.'.].'.].].",
"[.[.`.`.].`.`.`.'.'.'.'.(.(.(.(.(.^.'.^.L ] J a 2 5 4 z <.#.4 4 # O ; w n ( > b B.{.!.!.!.!././.!.!./.!.!.{.~.(.~.~.'.|.'.'.].'.",
"`.`.`.[.'.`.].'.'.~.|.~.'.`.'.(.^.(.(.'.] ] U 0 s 5 > z H.x.z 4 4 4 2 r ` ' e a A.{.!.!.!.!.{./.!.!.!.!.(.!.(.~.|.~.'.'.'.'.].`.",
"`.`.`.[.`.`.'.`.`.(.'.~.(.(.(.(.(.(.(.'.+.| | Z V b z ..2X2X_ V Z n N { 2.#.j m W.~.!.!.!.!.!./.(.{.!.{./.(.~.{.'.'.'.'.'.'.'.'.",
"`.`.`.`.'.`.`.~.`.'.~.(.(.`.(.~.^.(.!.'.8.+.0.2.| [ ;.w.H.2X9.>. .<.3.i.0.{ v I Q.!.!.!.!.!.!.!.!./.!.!.~.(.(.~.~.~.'.'.'.'.'.'.",
"`.`.[.`.`.`.`.`.^.^.^.^.(.(.(.(.~._.(.(.d.@.i.h.h.q.z.z.H.1Xr.4.9.4.9.3.,.W v &.(.Q.!.W.W.!.!.!.!.!.~.~.Q.Q.~.~.~.|.'.(.|.'.'.~.",
"f.T.f.R.R.R._.T.W.T.T.W.W.W.W.(.Q.Q.W.(.d.' 0.h.l.j.z.e.1X8X7.5.4.4.1.;.~ N K y.E.E.I.I.I.I.I.E.I.!.E.E.E.E.W.W.E.E.E.~.~.~.~.`.",
"R.f.R.`.f.T.T.f.T.K.P.W.W.W.W.W.W.W.P.P.d.+.,.3.j.c.l.r.6X8Xe.;.7.r.1.} T v v -.!.L.Z.Z.Z.Z.Z.I.Z.A.P.P.A.P.P.P.G.G.G.G.E.E.J.E.",
"R.R.R.f.T.T.T.T.P.T.P.T.Y.P.Y.P.P.P.L.P.C.+.#.3.j.j.7.r.6X6Xe.;.1.4.1.} F c J p.E.L.L.Z.Z.Z.Z.Z.Z.A.A.Z.Z.P.P.A.G.G.G.E.E.G.G.G.",
"U.U.R.U.R.R.f.T.T.Y.P.P.L.K.P.L.P.P.P.P.Y.8.~ 1.l.l.7.Q ;.;.x _ 7.1.<.~ n m s.P.Z.Z.Z.Z.L.Z.A.Z.A.A.P.A.P.P.P.I.P.P.G.E.G.G.E.R.",
"U.R.U.T.f.R.T.T.Y.P.P.P.K.P.K.P.P.K.L.K.P.s.! ,.4.l.j.A k k , ;.c.1.>.R v L C.V.Z.Z.Z.Z.Z.Z.A.Z.P.A.Z.P.P.P.A.A.E.A.Y.A.G.Y.R.G.",
"U.U.U.U.U.U.K.T.Y.P.P.P.K.K.K.P.L.K.K.V.K.f.+.#.0.c.c.:.A k x 3.l.4...D c ( A.V.Z.Z.Z.Z.Z.Z.V.Z.Z.A.A.A.A.P.A.P.A.P.Y.Y.E.Y.G.Y.",
"T.U.U.T.U.I.T.f.K.K.P.P.V.K.K.C.L.L.C.L.L.K.@.{ 3.j.z.e...Z <.e.;.^ W M i +.A.V.V.Z.D.Z.Z.Z.Z.V.A.Z.A.A.A.A.A.A.A.P.A.Y.G.Y.Y.Y.",
"U.U.U.U.U.U.U.U.K.K.C.C.C.K.K.V.K.C.V.V.D.K.*.! >.#.} ^ x V x V k v K c t -.A.D.D.V.B.L.Z.A.V.A.Z.C.Z.Z.A.A.C.A.A.G.A.Y.Y.Y.Y.Y.",
"f.U.U.U.U.f.U.K.K.K.K.C.K.V.P.V.L.V.C.V.D.K.y.Y ~ P M D Z V Z V Q T v y g p.V.D.V.L.B.L.B.V.B.A.Z.Z.C.C.C.A.A.A.G.A.A.G.A.Y.Y.G.",
"U.f.U.U.U.U.U.C.K.K.C.C.C.C.C.V.C.B.Z.V.V.V.f.] P { 2.;._ _ T W { K c w L Z.B.D.D.L.B.B.A.B.V.V.A.V.A.A.Z.Z.C.A.A.G.G.G.Y.G.Y.Y.",
"f.U.f.U.U.f.C.U.K.C.C.C.C.Z.Z.V.C.V.V.V.V.s.L.=.F ~ ^ T x k x A T M a 2 ( L.D.V.D.D.L.B.L.B.V.B.V.A.V.S.C.C.A.C.A.A.G.G.G.Y.U.G.",
"U.U.K.K.K.f.C.F.K.C.K.L.C.C.V.V.V.V.L.C.B.S.B.C.@.D P T / Q / T T N r 1 ( V.B.D.D.V.V.V.B.V.V.A.V.A.V.A.A.A.A.A.A.G.G.G.G.U.G.Y.",
"U.n.K.K.f.U.U.F.C.C.C.f.V.C.V.C.V.V.C.s.S.B.Z.p.Y R ~ ~ ;.:.[ W R c 8 2 ) L.B.V.L.D.V.D.Z.Z.A.V.B.A.V.A.A.V.A.A.Y.C.U.G.U.Y.U.G.",
"f.K.f.v.K.f.K.C.f.K.K.K.K.L.V.C.V.g.V.B.B.B.D.= i ' R ~ E K B K n w 0 7 H B.B.B.D.V.V.V.A.B.A.B.V.V.A.V.V.A.A.A.C.C.U.Y.G.Y.Y.U.",
"f.f.f.K.f.K.f.C.K.f.U.I.K.K.B.C.V.g.V.V.B.P.o.  d ! P M j u u r w 8 w s o ( E.D.Z.V.V.V.B.S.B.A.V.V.V.A.A.A.S.A.C.P.G.G.G.U.Y.U.",
"g.f.K.v.f.F.C.f.K.T.T.T.K.K.K.s.B.S.B.B.s.A.h   i ' R K j 4 4 2 8 0 e t + $ p.I.G.L.B.B.B.A.B.B.B.A.A.V.S.A.A.S.Y.A.G.G.G.G.G.G.",
"g.f.f.S.S.C.f.C.Y.T.R.R.R.K.V.V.B.B.V.s.B.A.p   c ! P I J c e s 0 8 0 p +   $ p.E.E.Z.B.B.B.A.B.B.V.B.A.A.C.A.A.Y.A.C.A.F.G.F.G.",
"f.f.f.f.f.F.K.f.U.R.R.R.T.K.s.C.B.B.D.L.A.)     F ! R P F v a s 2 8 0 s = X X ) <XG.L.B.B.A.B.B.V.S.A.B.S.A.A.G.G.C.G.G.F.G.F.G.",
"f.f.f.f.S.f.f.K.T.R.R.R.T.K.B.B.B.B.L.-.( o o . N Y P K n m a 4 1 3 8 0 s $ o 9 o.E.L.D.V.B.B.A.B.A.S.V.A.V.A.G.A.G.A.F.F.G.F.F.",
"f.d.d.d.f.f.f.U.U.R.R.R.T.U.f.s.B.B.C $ - - o O m ! K K N b s < - 3 3 0 f q X = = h D.I.A.B.S.S.S.S.C.Z.S.Z.A.S.C.G.C.U.F.F.G.F.",
"d.d.f.d.f.f.C.K.R.U.T.T.T.C.s.C.D.p   9 9 - + < e I J n b a < @ + $ + $ b C X = p 9 f -.p.V.B.S.V.S.S.S.C.Z.G.A.C.G.C.K.F.F.F.F.",
"d.d.d.d.g.g.f.f.F.U.T.U.G.S.S.a.f   - 9 9 - @ 3 2 b J a a e - + + X o $ 0 H 3 p = 9 p + f G.B.B.S.V.V.C.C.C.C.G.C.A.C.f.C.K.F.F.",
"d.d.d.f.g.g.f.C.v.U.U.f.g.C.-.3 o o - - = - + s w 0 r O # < + o + X X - - - = ( - = f 3 X o.Z.B.V.S.V.V.S.S.F.C.C.C.C.K.f.C.K.v."
};
